# xmcd CD database file
#
# Track frame offsets:
#	150
#	28520
#	48608
#	63387
#	93978
#	111356
#	136166
#	140926
#
# Disc length: 2154 seconds
#
# Revision: 0
# Processed by: cddbd v1.5.1PL2 Copyright (c) Steve Scherf et al.
# Submitted via: CDex 1.51
#
DISCID=74086808
DTITLE=LOOPCUBE - EARLYDAYS
DYEAR=2005
DGENRE=Game
TTITLE0=雪華
TTITLE1=アーリーデイズ
TTITLE2=quinquennial
TTITLE3=selfhood
TTITLE4=アメリカンパンフレット
TTITLE5=寂しさスイッチ
TTITLE6=stew magistrate
TTITLE7=恋してる空(brutal mix)
EXTD=YEAR: 2005
EXTT0=
EXTT1=
EXTT2=
EXTT3=
EXTT4=
EXTT5=
EXTT6=
EXTT7=
PLAYORDER=
